# xmcd
#
# Track frame offsets:
#	150
#	22354
#	43346
#	68643
#	90361
#	110641
#	133514
#	153853
#	175281
#	194480
#
# Disc length: 2906 seconds
#
# Revision: 2
# Processed by: cddbd v1.5.2PL0 Copyright (c) Steve Scherf et al.
# Submitted via: Jack! The Knife 17 Overdose
#
DISCID=890b580a
DTITLE=Pooh - Il Cielo E' Blu Sopra Le Nuvole
DYEAR=1992
DGENRE=Pop
TTITLE0=Il Cielo E' Blu Sopra Le Nuvole
TTITLE1=Balliamo Balliamo
TTITLE2=Stare Senza Di Te
TTITLE3=Ricominciamo
TTITLE4=La Mia Faccia
TTITLE5=Maria Marea
TTITLE6=50 Primavere
TTITLE7=La Donna Infinita
TTITLE8=Le Ragazze Normali
TTITLE9=In Italia Si Può
EXTD=Pooh
EXTT0=Facchinetti, Negrini
EXTT1=Facchinetti, Negrini
EXTT2=Canzian, D'Orazio
EXTT3=Battaglia, Negrini
EXTT4=Facchinetti, Negrini
EXTT5=Canzian, Negrini
EXTT6=Battaglia, D'Orazio
EXTT7=Facchinetti, D'Orazio
EXTT8=Battaglia, Negrini
EXTT9=Facchinetti, Negrini
PLAYORDER=
